<svg width="723" height="151" viewBox="0 0 723 151" fill="none" xmlns="http://www.w3.org/2000/svg">
<path d="M122.251 0.51546C101.708 3.93606 87.9113 13.7418 79.8002 30.6167C75.4035 39.8143 74.4939 44.0711 74.5697 54.9409C74.6455 62.6183 74.9487 65.0507 76.6164 70.1436C83.8936 92.4155 103.527 107.01 127.936 108.302C137.791 108.834 146.205 107.314 154.24 103.589C157.272 102.145 159.774 101.385 159.774 101.765C159.774 102.221 167.506 110.507 176.906 120.312C189.489 133.387 194.72 138.327 196.69 139.012C207.682 142.66 218.067 129.966 211.397 120.996C210.184 119.4 202.906 111.799 195.25 104.122C183.88 92.8716 180.847 90.2871 179.028 90.1351C175.465 89.9831 175.086 89.907 174.556 89.375C174.328 89.1469 175.314 87.2466 176.754 85.1182C187.139 70.6757 188.807 47.9477 180.62 31.8329C177.664 25.9799 170.083 16.4782 165.307 12.6776C153.558 3.32795 135.82 -1.68892 122.251 0.51546ZM138.7 13.5897C146.281 15.186 153.558 19.2907 159.85 25.5998C168.112 33.8853 171.902 42.8548 171.902 53.9528C171.902 65.1267 168.415 73.7922 160.759 82.0017C152.193 91.0472 140.974 95.38 127.936 94.6199C119.37 94.0878 113.23 92.1874 106.635 87.9307C94.203 79.7973 87.7597 68.0912 87.7597 53.3447C87.7597 37.2299 95.9465 24.3836 111.107 16.6303C118.233 12.9816 129.679 11.6894 138.7 13.5897Z" fill="black"/>
<path d="M46.7495 13.5137C40.3819 15.4141 37.5014 21.039 40.0787 26.664C40.8367 28.3363 40.4577 29.1725 35.8337 35.2535L30.8306 42.0187L26.5097 42.4748C22.8711 42.9309 21.8857 43.3869 19.7631 45.7434C17.7164 47.9477 17.2616 49.0879 17.2616 51.6724C17.2616 60.946 27.2678 65.2027 33.7111 58.7416C35.8337 56.6133 36.2127 55.7011 36.2127 52.5085C36.2127 50.3802 35.682 48.0998 34.9998 47.0356C33.8627 45.4393 33.8627 45.2113 35.6062 43.3109C36.6675 42.1707 38.9416 39.1302 40.6851 36.5458L43.7931 31.7569L47.1285 32.213C51.0703 32.8211 55.2396 31.0728 56.7557 28.2603C57.7411 26.36 57.8169 26.36 66.4586 26.512C74.6455 26.664 75.1761 26.588 76.4648 24.9917C77.2986 24.0036 77.9051 22.9394 77.9051 22.5593C77.9051 22.1792 73.5084 21.8752 68.0505 21.8752C58.8024 21.8752 58.1959 21.7992 58.1959 20.4309C58.1959 18.5306 54.7847 14.5019 52.6622 13.8938C49.4784 12.9816 48.7204 12.9056 46.7495 13.5137Z" fill="black"/>
<path d="M326.619 19.7468C322.601 21.7231 320.479 24.9917 320.479 29.2485C320.479 36.3937 324.421 39.7383 332.229 39.2062C337.687 38.9021 340.188 37.4579 343.069 33.2772C346.252 28.5643 344.433 21.115 339.733 19.1387C336.019 17.5424 330.485 17.8465 326.619 19.7468Z" fill="black"/>
<path d="M430.774 19.9749C410.459 23.7755 396.586 37.6099 392.796 57.9815C389.233 77.1368 395.98 94.3158 410.61 103.589C422.587 111.115 444.571 112.027 458.822 105.566L463.749 103.285V95.304C463.749 90.8952 463.522 87.2466 463.294 87.2466C462.991 87.2466 461.702 87.9307 460.338 88.7668C448.133 96.3682 428.803 94.7719 420.92 85.5743C414.021 77.3649 412.581 62.4663 417.812 51.1403C420.389 45.4393 424.482 41.2586 430.168 38.4461C438.885 34.1133 452.303 34.7214 461.399 39.7383C463.218 40.8025 464.886 41.4866 465.114 41.2586C465.265 41.1065 465.947 37.6099 466.554 33.5052C467.615 26.2079 467.615 26.0559 466.023 24.7637C459.959 19.8228 443.509 17.6184 430.774 19.9749Z" fill="black"/>
<path d="M484.974 20.5069C480.199 20.887 475.878 21.2671 475.423 21.4951C474.817 21.6471 474.513 24.2316 474.438 28.4883C474.362 32.137 473.831 44.7552 473.225 56.4612C472.618 68.1673 471.936 83.0658 471.709 89.527C471.481 95.9881 471.102 102.753 470.875 104.502L470.496 107.77H480.274H490.129L490.66 95.7601C491.418 78.125 492.252 70.2196 493.692 67.5591C496.118 62.7703 502.182 60.87 506.958 63.3024C510.596 65.2027 510.975 68.1673 509.99 87.4746C509.535 96.7482 509.08 105.11 508.929 106.022C508.701 107.77 508.777 107.77 518.404 107.77H528.183V104.882C528.259 103.361 528.713 93.8597 529.244 83.826C529.775 73.7162 530.002 63.4544 529.699 60.87C528.941 54.7129 526.288 50.1521 521.967 47.7197C519.162 46.0474 517.798 45.8194 511.885 45.8194C503.85 45.8954 500.363 47.3396 496.042 52.3565C494.526 54.1808 493.237 55.473 493.085 55.245C492.934 55.093 493.237 47.2636 493.692 37.838C494.147 28.4123 494.374 20.583 494.147 20.3549C493.919 20.1269 489.75 20.2029 484.974 20.5069Z" fill="black"/>
<path d="M242.855 24.6877C242.628 27.1201 241.718 40.8785 240.884 55.321C239.975 69.7635 238.989 86.8665 238.61 93.3276C238.155 99.7888 237.852 105.718 237.852 106.402C237.852 107.694 239.444 107.77 260.063 107.77C289.096 107.77 294.933 106.554 302.968 99.0286C308.047 94.2398 310.17 89.2229 310.245 81.9256C310.245 72.8041 306 66.647 297.586 63.5304L293.265 62.0102L297.055 60.1098C301.983 57.6014 305.166 54.3328 307.441 49.316C310.7 42.1707 308.881 33.0491 302.892 27.5002C296.449 21.4191 290.991 20.3549 264.232 20.3549H243.31L242.855 24.6877ZM281.212 35.5576C282.804 36.0136 285.002 37.5339 286.367 39.1302C288.641 41.6386 288.793 42.2467 288.489 46.0474C288.186 49.696 287.731 50.6082 285.382 52.7366C281.895 56.0051 278.483 56.8413 269.008 56.8413H261.124L261.579 49.392C261.882 45.3633 262.11 40.4224 262.11 38.3701V34.7974H270.296C274.769 34.7974 279.696 35.1775 281.212 35.5576ZM279.848 70.2956C281.743 70.5997 283.79 71.7399 285.685 73.5642C288.489 76.2247 288.641 76.6807 288.641 80.7854C288.641 86.1824 286.822 89.527 282.728 91.5033C280.454 92.6435 278.028 92.8716 269.766 92.9476H259.608L259.76 87.2466C259.76 84.13 260.063 78.8851 260.29 75.6165L260.821 69.7635H268.856C273.253 69.7635 278.18 69.9916 279.848 70.2956Z" fill="black"/>
<path d="M664.631 22.1792C664.631 24.1556 661.144 88.6908 660.461 100.321L659.931 107.77H669.785H679.64L680.171 92.7955C680.701 79.3412 680.853 77.8969 681.838 79.2652C683.43 81.4696 699.425 106.478 699.652 107.238C699.804 107.542 705.034 107.694 711.326 107.618L722.773 107.39L712.615 92.5675C707.081 84.4341 701.926 76.9848 701.168 76.1486C699.576 74.3243 698.97 75.2365 717.011 53.9528L723 46.9595H712.084H701.168L691.465 59.4257C686.083 66.2669 681.611 71.8159 681.459 71.7399C681.232 71.5118 683.203 35.4815 683.961 25.8279L684.416 20.3549H674.485H664.631V22.1792Z" fill="black"/>
<path d="M368.311 27.2721C356.638 28.4883 356.334 28.5643 355.804 31.1488C355.576 32.441 355.349 35.2535 355.349 37.3819C355.349 39.5102 355.122 42.5508 354.894 44.071C354.363 46.9595 354.363 46.9595 350.725 46.9595C348.678 46.9595 347.01 47.1876 346.935 47.4916C346.935 47.8717 346.631 51.0642 346.404 54.7129L345.873 61.4021H349.967H354.06L353.605 64.2145C352.544 71.0557 352.089 97.5844 352.999 100.321C354.136 103.817 358.154 107.39 361.944 108.454C367.857 110.127 378.697 109.366 385.14 106.858C387.111 106.098 387.187 105.946 387.187 99.7127C387.187 96.2161 387.035 93.3276 386.884 93.3276C386.732 93.3276 385.367 93.8597 383.927 94.4678C379.834 96.1401 376.271 95.9121 373.769 93.7837L371.647 91.8834L371.798 79.8733C371.874 73.2601 372.177 66.4189 372.405 64.5946L372.86 61.4021H379.91H386.959L387.414 56.2332C387.717 53.4207 387.945 50.2281 387.945 49.0119V46.9595H381.047H374.224L374.755 37.6099C374.982 32.517 375.285 28.0322 375.361 27.6522C375.513 26.664 374.452 26.588 368.311 27.2721Z" fill="black"/>
<path d="M562.143 46.1994C546.982 48.9359 536.521 62.3142 536.521 78.8851C536.521 89.0709 539.705 96.6722 546.073 102.373C551.758 107.314 556.382 108.758 568.359 109.138C579.502 109.442 585.188 108.454 591.783 105.11L595.27 103.361L595.042 96.7482C594.815 92.0354 594.512 90.2871 593.905 90.5912C585.415 94.3158 582.686 95.0759 576.319 95.456C564.114 96.0641 558.656 93.0996 556.685 84.7381L556.23 82.6858H576.243C593.754 82.6858 596.331 82.5338 596.71 81.4696C596.937 80.7854 597.165 77.8209 597.165 74.8564C597.089 56.7653 588.068 46.5795 571.391 45.8193C568.283 45.6673 564.114 45.8193 562.143 46.1994ZM573.211 59.5017C576.091 60.87 578.214 64.8227 578.214 68.6233V71.2838H567.601C557.216 71.2838 556.988 71.2838 556.988 69.6115C556.988 66.495 559.945 61.7821 562.825 60.0338C566.237 58.1335 569.875 57.9055 573.211 59.5017Z" fill="black"/>
<path d="M628.472 46.2754C619.375 47.7957 609.672 54.7129 605.806 62.3142C597.544 78.6571 602.395 98.7246 616.267 105.946C625.061 110.507 641.586 110.507 651.213 105.87L654.018 104.578V97.5084V90.4391L649.394 92.3395C643.633 94.6959 637.72 95.304 633.02 94.1638C624.985 92.1114 621.801 87.0185 622.256 76.7567C622.559 71.4358 622.862 70.2196 624.833 67.3311C629.609 60.4139 639.539 58.3615 649.318 62.3142L653.866 64.2146L654.7 58.5896C655.913 50.3801 655.913 50.2281 652.578 48.5558C647.196 45.8194 637.114 44.8312 628.472 46.2754Z" fill="black"/>
<path d="M3.76846 48.0997C3.76846 49.3159 3.92007 49.772 4.14748 49.0119C4.29909 48.3278 4.29909 47.2636 4.14748 46.7315C3.92007 46.2754 3.76846 46.8075 3.76846 48.0997Z" fill="black"/>
<path d="M320.479 48.2518C320.479 49.0119 319.797 61.7821 318.963 76.6047C318.129 91.4273 317.447 104.502 317.447 105.642V107.77H326.922C336.095 107.77 336.398 107.694 336.701 106.022C336.928 105.11 337.611 93.7077 338.293 80.7854C338.899 67.7872 339.657 54.9409 339.961 52.0524L340.415 46.9595H330.409C321.464 46.9595 320.479 47.1116 320.479 48.2518Z" fill="black"/>
<path d="M3.23783 55.321C3.46524 55.701 3.84427 56.0811 4.07168 56.0811C4.22329 56.0811 4.3749 55.701 4.3749 55.321C4.3749 54.8649 3.99587 54.5609 3.54105 54.5609C3.16203 54.5609 3.01042 54.8649 3.23783 55.321Z" fill="black"/>
<path d="M6.1184 55.397C6.80064 55.8531 8.69575 56.3092 10.2876 56.4612C11.8037 56.5372 13.244 56.7653 13.4714 56.8413C14.2295 57.1453 9.22638 58.2095 6.49742 58.2855C3.76846 58.3615 3.61686 58.5136 3.69266 60.794C3.84427 63.1504 3.84427 63.1504 4.14749 61.174C4.4507 59.1217 4.52651 59.1217 10.4392 59.1217C16.6552 59.1217 17.7165 58.5896 16.8826 56.0811C16.4278 54.7129 15.7455 54.5609 10.5909 54.5609C6.1942 54.6369 5.05714 54.7889 6.1184 55.397ZM16.1246 56.8413C16.352 57.2213 16.2004 57.6014 15.8214 57.6014C15.3665 57.6014 14.9875 57.2213 14.9875 56.8413C14.9875 56.3852 15.1391 56.0811 15.2907 56.0811C15.5181 56.0811 15.8972 56.3852 16.1246 56.8413Z" fill="black"/>
<path d="M51.7526 62.3143C47.2801 63.5305 44.5512 67.1031 44.5512 71.8159C44.5512 79.1132 53.2687 83.598 59.6362 79.6453C61.0007 78.7331 62.5168 77.0608 62.9716 75.8446C63.7297 73.8683 64.1845 73.6402 67.5957 73.4122C69.6424 73.2602 71.4617 72.8041 71.6133 72.348C72.1439 70.8277 69.5666 69.0034 66.9134 69.0034C64.7909 69.0034 64.1087 68.5473 63.199 66.8751C62.5926 65.6588 61.5313 64.2906 60.8491 63.6825C59.1814 62.3143 54.4057 61.5541 51.7526 62.3143Z" fill="black"/>
<path d="M4.52649 67.4831C4.52649 68.5473 4.6781 68.9273 4.90551 68.3953C5.05712 67.9392 5.05712 67.027 4.90551 66.4949C4.6781 66.0388 4.52649 66.4189 4.52649 67.4831Z" fill="black"/>
<path d="M5.20877 70.5237C5.13296 72.348 7.78611 81.1655 9.90863 85.9543L11.8795 90.2871L9.98444 89.831C8.77157 89.527 8.16513 89.679 8.16513 90.3631C8.08933 91.8834 5.891 87.7026 3.92009 82.3057C1.79757 76.6807 1.57016 77.8209 3.61687 83.826C9.07479 99.7127 22.3405 116.512 37.274 126.545C40.5336 128.75 42.9593 130.574 42.7319 130.574C41.7465 130.574 37.9562 128.598 36.5918 127.306C35.7579 126.545 34.9999 126.241 34.8483 126.621C34.7725 127.002 33.6354 127.078 32.4225 126.925C30.3758 126.621 30.2242 126.393 31.058 125.329C31.8161 124.341 31.7403 124.341 30.4516 125.405C28.7839 126.849 26.7372 127.23 27.4952 126.013C27.7227 125.557 27.6468 125.253 27.192 125.253C26.7372 125.253 26.5856 124.645 26.8888 123.885C27.2678 122.821 27.1162 122.821 26.055 124.113C25.2969 124.949 24.9937 125.101 25.2969 124.493C25.6759 123.581 25.6001 123.581 24.9179 124.189C24.1598 124.873 24.1598 125.481 24.8421 126.697C25.2969 127.61 25.9792 128.142 26.3582 127.914C26.7372 127.686 27.192 127.838 27.4194 128.218C28.4049 129.814 25.5243 128.446 23.705 126.469C22.6438 125.329 21.5067 124.569 21.1277 124.797C20.3696 125.329 9.15059 113.319 5.43618 108.074C2.2524 103.589 1.41855 102.829 3.31366 106.098C5.891 110.735 14.2295 120.616 19.081 124.949C31.5887 135.971 45.8399 143.8 60.1669 147.297C86.0162 153.758 112.169 151.706 132.939 141.596C139.231 138.556 152.193 129.738 152.193 128.522C152.193 128.294 151.587 128.598 150.829 129.282C150.071 130.042 148.934 130.574 148.327 130.574C147.645 130.574 145.826 131.79 144.158 133.235C142.566 134.679 140.974 135.971 140.671 135.971C140.292 136.047 139.761 136.123 139.307 136.199C138.928 136.199 138.094 136.959 137.487 137.795C136.805 138.632 136.274 138.936 136.274 138.403C136.274 137.795 135.289 137.643 133.166 137.871C130.741 138.175 130.21 138.023 130.665 137.263C130.968 136.731 130.968 136.503 130.589 136.807C130.286 137.111 129.452 136.959 128.846 136.427C128.088 135.819 127.86 135.819 128.163 136.351C128.467 136.883 128.163 137.491 127.481 137.719C125.662 138.403 125.131 138.251 126.42 137.415C128.315 136.199 125.738 136.503 123.009 137.871C121.341 138.708 121.189 138.86 122.478 138.632C123.388 138.48 123.994 138.632 123.767 138.936C123.16 139.848 124.601 140.532 127.178 140.608C129.755 140.684 129.755 141.064 127.254 141.596C126.42 141.748 125.283 142.128 124.904 142.356C124.449 142.584 124.146 142.28 124.146 141.596C124.146 139.544 120.735 138.86 115.807 140C113.306 140.608 111.032 141.14 110.88 141.14C110.653 141.216 110.425 141.216 110.349 141.292C110.198 141.292 108.909 141.444 107.469 141.596C105.043 141.9 104.967 141.824 106.256 140.836C107.62 139.848 107.62 139.772 106.029 139.924C105.195 140 104.437 140.456 104.437 140.988C104.437 141.52 103.906 141.976 103.224 141.976C102.466 141.976 102.163 141.52 102.466 140.836C102.769 140.076 102.39 139.696 101.404 139.696C100.571 139.696 99.5852 139.012 99.1303 138.175C98.4481 136.807 98.5239 136.655 100.419 136.579C101.556 136.579 103.224 136.275 104.058 135.895C104.891 135.591 101.404 135.439 96.0982 135.667C68.9602 136.807 44.3238 127.458 27.0404 109.518C17.9439 100.017 10.136 86.6385 6.64905 74.4763C5.891 71.6638 5.20877 69.9155 5.20877 70.5237ZM9.68122 92.5675C9.68122 92.9476 9.52961 93.3276 9.378 93.3276C9.15059 93.3276 8.77157 92.9476 8.54416 92.5675C8.31674 92.1114 8.46835 91.8074 8.84737 91.8074C9.3022 91.8074 9.68122 92.1114 9.68122 92.5675ZM133.773 139.544C133.091 139.696 132.712 140.152 132.939 140.608C133.242 141.14 133.091 141.216 132.636 140.912C131.347 140.076 132.408 138.175 133.849 138.784C135.062 139.24 134.986 139.316 133.773 139.544Z" fill="black"/>
<path d="M39.6239 80.4814L35.0757 85.1182L39.0933 82.6098C41.2916 81.2415 43.1867 80.3294 43.4141 80.4814C43.5657 80.7094 42.2771 82.5338 40.6094 84.5861L37.5014 88.3868L41.7464 84.2061C46.2947 79.7973 46.5979 79.1892 45.0818 77.1368C44.248 75.9206 43.7173 76.3007 39.6239 80.4814Z" fill="black"/>
<path d="M0.281432 101.157C0.508845 101.917 0.963671 102.297 1.19108 102.069C1.4185 101.841 1.19108 101.233 0.660454 100.701C-0.0975893 100.017 -0.173394 100.093 0.281432 101.157Z" fill="black"/>
<path d="M105.953 135.059C105.953 135.363 106.787 135.515 107.848 135.287C108.909 135.135 109.743 134.831 109.743 134.679C109.743 134.527 108.909 134.375 107.848 134.375C106.787 134.375 105.953 134.679 105.953 135.059Z" fill="black"/>
</svg>
